<!-- Generator: Adobe Illustrator 19.0.0, SVG Export Plug-In . SVG Version: 6.00 Build 0)  -->
<svg version="1.1" id="icons__x28_128_x__x_128_x29_"
	 xmlns="http://www.w3.org/2000/svg" x="0px" y="0px" width="136px" height="136px"
	 viewBox="0 0 112 112" style="enable-background:new 0 0 136 136; stroke: gray" xml:space="preserve">
<g>
	<g>
		<path stroke-width="4" d="M28,108c-5.5,0-10-4.5-10-10V14c0-5.5,4.5-10,10-10h56c5.5,0,10,4.5,10,10v84c0,5.5-4.5,10-10,10
			H28z"/>
		<g stroke-width="3">
			<g>
				<rect x="30" y="20" rx="2" width="52" height="72" style="fill: none"/>
			</g>
			<g class="stroke">
				<line x1="33" x2="33" y1="20" y2="92" stroke-width="6"/>
				<line x1="33" x2="82" y1="23" y2="23" stroke-width="6"/>
				<line x1="30" x2="82" y1="34.6" y2="34.6"/>
				<line x1="30" x2="82" y1="46" y2="46"/>
				<line x1="30" x2="82" y1="57.5" y2="57.5"/>
				<line x1="30" x2="82" y1="69" y2="69"/>
				<line x1="30" x2="82" y1="81.5" y2="81.5"/>
				<line x1="30" x2="82" y1="92" y2="92"/>

				<line x1="43" x2="43" y1="20" y2="92"/>
				<line x1="65" x2="65" y1="20" y2="92"/>
				<line x1="74" x2="74" y1="20" y2="92"/>
			</g>
		</g>
	</g>
</g>
</svg>
